<svg xmlns="http://www.w3.org/2000/svg" viewBox="0 0 64 64"><g id="_09-Play" data-name="09-Play"><circle cx="32" cy="32" r="26" style="fill:#fbfbfb"/><path d="M11,26a25.885,25.885,0,0,1,3.737-13.436A26,26,0,1,0,54.263,45.436,26,26,0,0,1,11,26Z" style="fill:#d6e0eb"/><path d="M32,1A31,31,0,1,0,63,32,31,31,0,0,0,32,1Zm0,57A26,26,0,1,1,58,32,26,26,0,0,1,32,58Z" style="fill:#48befd"/><polygon points="26 17 26 47 46 32 26 17" style="fill:#48befd"/><polygon points="26 17 26 47 22 45 22 19 26 17" style="fill:#2a84c9"/><path d="M54.873,51.5a2.5,2.5,0,0,1-2-3.992,26,26,0,0,0,0-31.015,2.5,2.5,0,1,1,4.01-2.985,31,31,0,0,1,0,36.985A2.5,2.5,0,0,1,54.873,51.5Z" style="fill:#6bdcff"/><path d="M9.127,51.5A2.5,2.5,0,0,1,7.12,50.493a31,31,0,0,1,0-36.985,2.5,2.5,0,1,1,4.01,2.985,26,26,0,0,0,0,31.015,2.5,2.5,0,0,1-2,3.992Z" style="fill:#6bdcff"/><path d="M23.106,38.553A2,2,0,0,1,22,36.764V45l4,2V36.764A2,2,0,0,1,23.106,38.553Z" style="fill:#1c69a1"/><circle cx="32" cy="32" r="31" style="fill:none;stroke:#000;stroke-linejoin:round;stroke-width:2px"/><path d="M57.694,28q.153.988.23,2" style="fill:none;stroke:#000;stroke-linejoin:round;stroke-width:2px"/><path d="M58,32a25.972,25.972,0,1,1-.7-6" style="fill:none;stroke:#000;stroke-linejoin:round;stroke-width:2px"/><polyline points="26 22 26 17 46 32 26 47 26 24" style="fill:none;stroke:#000;stroke-linejoin:round;stroke-width:2px"/><polyline points="26 47 22 45 22 19 26 17" style="fill:none;stroke:#000;stroke-linejoin:round;stroke-width:2px"/></g></svg>