<?xml version="1.0" encoding="iso-8859-1"?>
<!-- Generator: Adobe Illustrator 19.0.0, SVG Export Plug-In . SVG Version: 6.00 Build 0)  -->
<svg version="1.1" id="Layer_1" xmlns="http://www.w3.org/2000/svg" xmlns:xlink="http://www.w3.org/1999/xlink" x="0px" y="0px"
	 viewBox="0 0 512.001 512.001" style="enable-background:new 0 0 512.001 512.001;" xml:space="preserve">
<path style="fill:#F7729B;" d="M501.58,185.908l1.816,44.244l-81.459,16.278v174.255h-0.147
	c-1.184,17.316-10.108,36.55-25.867,52.309c-27.875,27.864-66.557,34.373-86.411,14.518c-19.843-19.854-13.345-58.536,14.518-86.4
	c18.625-18.625,42.066-27.695,61.503-25.743V207.33L501.58,185.908z"/>
<path style="fill:#FCD559;" d="M350.845,12.307v221.173h-0.135c-1.196,17.327-10.108,36.55-25.878,52.321
	c-27.864,27.864-66.546,34.362-86.4,14.507c-19.854-19.843-13.357-58.536,14.518-86.4c18.613-18.625,42.066-27.683,61.503-25.732
	V64.266l-182.208,38.581v174.255h-0.135c-1.184,17.316-10.108,36.55-25.878,52.309c-27.864,27.864-66.546,34.373-86.4,14.518
	s-13.345-58.536,14.518-86.411c18.625-18.613,42.066-27.683,61.503-25.732V63.747L350.845,12.307z"/>
<g>
	<path style="fill:#E2B844;" d="M54.655,253.762c-27.864,27.875-34.373,66.557-14.518,86.411
		c8.009,8.009,19.065,11.721,31.259,11.484c-19.719,6.757-39.257,4.58-51.565-7.727c-19.854-19.854-13.345-58.536,14.518-86.411
		c16.628-16.617,37.103-25.63,55.13-25.98C77.397,235.679,65.248,243.181,54.655,253.762z"/>
	<path style="fill:#E2B844;" d="M273.255,210.15c-27.875,27.864-34.373,66.557-14.518,86.4c8.009,8.009,19.076,11.732,31.271,11.495
		c-19.719,6.746-39.269,4.569-51.576-7.739c-19.854-19.843-13.357-58.536,14.518-86.4c16.617-16.628,37.08-25.619,55.096-25.98
		C295.975,192.067,283.837,199.569,273.255,210.15z"/>
</g>
<path style="fill:#E55C8D;" d="M344.336,397.356c-27.875,27.864-34.373,66.557-14.518,86.4c8.009,8.009,19.076,11.732,31.271,11.495
	c-19.719,6.746-39.269,4.569-51.576-7.739c-19.854-19.843-13.357-58.536,14.518-86.4c16.617-16.628,37.08-25.619,55.096-25.98
	C367.056,379.273,354.918,386.775,344.336,397.356z"/>
<path style="fill:#E2B844;" d="M314.453,188.175c-2.087-0.214-4.23-0.293-6.408-0.248c2.143-0.733,4.275-1.354,6.408-1.861V188.175z
	"/>
<path d="M263.849,75.346c-0.968-4.571-5.458-7.493-10.03-6.525L130.635,94.905c-3.911,0.828-6.708,4.28-6.708,8.277v172.744
	c-0.055,0.306-0.094,0.617-0.116,0.934c-1.097,16.03-9.632,33.126-23.421,46.904c-12.244,12.244-27.026,20.338-41.622,22.793
	c-13.545,2.279-25.199-0.66-32.812-8.273c-16.517-16.517-10.004-49.914,14.52-74.448c3.303-3.305,3.302-8.661-0.003-11.964
	c-3.304-3.304-8.661-3.304-11.964,0.002c-14.71,14.716-24.481,32.755-27.513,50.792c-3.211,19.094,1.406,35.993,12.996,47.583
	c9.188,9.187,21.707,13.992,36.013,13.991c3.742,0,7.61-0.329,11.57-0.995c18.038-3.032,36.074-12.804,50.781-27.513
	c16.196-16.184,26.414-36.545,28.211-56.113c0.185-0.696,0.284-1.427,0.284-2.181V110.04l116.477-24.662
	C261.896,84.409,264.817,79.919,263.849,75.346z"/>
<path d="M359.164,236.001c0.186-0.697,0.285-1.43,0.285-2.186V12.642c0-2.537-1.139-4.94-3.102-6.547
	c-1.963-1.606-4.543-2.248-7.031-1.746L94.323,55.789c-3.948,0.796-6.788,4.266-6.788,8.294v159.39
	c-10.411,0.496-21.285,3.46-31.92,8.746c-4.184,2.08-5.89,7.158-3.81,11.342c2.079,4.184,7.158,5.892,11.343,3.81
	c10.839-5.388,22.206-7.815,32.003-6.831c2.379,0.239,4.748-0.54,6.52-2.143c1.773-1.604,2.785-3.883,2.785-6.274V71.008
	l238.071-48.027v209.323c-0.055,0.305-0.094,0.614-0.116,0.928c-1.107,16.043-9.644,33.145-23.421,46.922
	c-12.243,12.243-27.024,20.335-41.622,22.786c-13.546,2.273-25.197-0.666-32.814-8.281c-7.612-7.609-10.552-19.26-8.277-32.807
	c2.454-14.601,10.55-29.383,22.799-41.629c16.125-16.135,37.064-25.06,54.674-23.294c2.377,0.241,4.748-0.54,6.52-2.143
	c1.773-1.604,2.785-3.883,2.785-6.274V64.601c0-2.552-1.152-4.967-3.134-6.573c-1.983-1.606-4.583-2.231-7.079-1.705l-30.202,6.395
	c-4.572,0.968-7.493,5.459-6.524,10.03c0.968,4.572,5.463,7.494,10.03,6.525l19.99-4.233v104.811
	c-20.295,0.934-41.772,11.144-59.023,28.407c-14.716,14.709-24.49,32.746-27.521,50.79c-3.208,19.095,1.409,35.992,12.999,47.576
	c9.189,9.189,21.712,13.995,36.022,13.995c3.738,0,7.602-0.328,11.558-0.993c18.039-3.03,36.075-12.799,50.785-27.509
	C347.138,275.938,357.355,255.573,359.164,236.001z"/>
<path d="M510.176,185.897c-0.102-2.45-1.259-4.736-3.176-6.265c-1.917-1.53-4.406-2.155-6.814-1.708l-116.045,21.422
	c-4.013,0.741-6.925,4.239-6.925,8.32v159.382c-20.283,0.937-41.759,11.151-59.026,28.418
	c-14.709,14.709-24.478,32.745-27.511,50.784c-3.207,19.091,1.406,35.988,12.992,47.58c9.188,9.187,21.708,13.992,36.014,13.991
	c3.743,0,7.61-0.329,11.571-0.995c18.037-3.032,36.075-12.803,50.793-27.514c16.17-16.17,26.378-36.506,28.19-56.049
	c0.196-0.714,0.301-1.466,0.301-2.243v-71.092c0-4.673-3.787-8.461-8.461-8.461s-8.461,3.788-8.461,8.461v69.521
	c-0.061,0.325-0.104,0.657-0.126,0.994c-1.096,16.028-9.628,33.124-23.407,46.904c-24.534,24.522-57.931,31.036-74.447,14.521
	c-7.61-7.615-10.548-19.268-8.271-32.814c2.452-14.599,10.546-29.38,22.788-41.623c16.142-16.142,37.089-25.072,54.676-23.307
	c2.379,0.24,4.748-0.54,6.52-2.143c1.773-1.604,2.785-3.883,2.785-6.274V214.708l99.531-18.374l1.119,27.274l-74.367,14.86
	c-3.955,0.791-6.802,4.263-6.802,8.296v76.089c0,4.673,3.787,8.461,8.461,8.461s8.461-3.788,8.461-8.461V253.7l74.657-14.919
	c4.084-0.816,6.967-4.483,6.796-8.643L510.176,185.897z"/>
<g>
</g>
<g>
</g>
<g>
</g>
<g>
</g>
<g>
</g>
<g>
</g>
<g>
</g>
<g>
</g>
<g>
</g>
<g>
</g>
<g>
</g>
<g>
</g>
<g>
</g>
<g>
</g>
<g>
</g>
</svg>
